# xmcd CD database file
#
# Track frame offsets:
#	150
#	12358
#	34256
#	47389
#	57650
#	73218
#	103550
#	119181
#	133834
#	147855
#	165483
#	175554
#
# Disc length: 2501 seconds
#
# Revision: 0
# Processed by: cddbd v1.5.1PL0 Copyright (c) Steve Scherf et al.
# Submitted via: CDex 1.51
#
DISCID=ad09c30c
DTITLE=Yusef Lateef - Yusef Lateef's Encounters
DYEAR=1991
DGENRE=Jazz
TTITLE0=5th Encounter
TTITLE1=1st Encounter
TTITLE2=6th Encounter
TTITLE3=4th Encounter
TTITLE4=12th Encounter
TTITLE5=11th Encounter
TTITLE6=8th Encounter
TTITLE7=2nd Encounter
TTITLE8=7th Encounter
TTITLE9=9th Encounter
TTITLE10=3rd Encounter
TTITLE11=15th Encounter
EXTD=YEAR: 1991
EXTT0=
EXTT1=
EXTT2=
EXTT3=
EXTT4=
EXTT5=
EXTT6=
EXTT7=
EXTT8=
EXTT9=
EXTT10=
EXTT11=
PLAYORDER=
